<?xml version="1.0" encoding="UTF-8"?>
<svg xmlns="http://www.w3.org/2000/svg" xmlns:xlink="http://www.w3.org/1999/xlink" width="50pt" height="50pt" viewBox="0 0 50 50" version="1.1">
<g id="surface1">
<path style=" stroke:none;fill-rule:nonzero;fill:rgb(89.803922%,72.941176%,1.176471%);fill-opacity:1;" d="M 47.734375 16.617188 L 44.921875 16.617188 C 43.671875 16.617188 42.65625 17.636719 42.65625 18.882812 L 42.65625 21.070312 L 41.722656 23.597656 L 43.15625 24.128906 L 43.953125 21.972656 L 46.910156 21.972656 C 48.613281 21.972656 50 20.585938 50 18.882812 C 50 17.636719 48.984375 16.617188 47.734375 16.617188 Z M 47.734375 16.617188 "/>
<path style=" stroke:none;fill-rule:nonzero;fill:rgb(89.803922%,72.941176%,1.176471%);fill-opacity:1;" d="M 7.34375 18.882812 C 7.34375 17.636719 6.328125 16.617188 5.078125 16.617188 L 2.265625 16.617188 C 1.015625 16.617188 0 17.636719 0 18.882812 C 0 20.585938 1.386719 21.972656 3.089844 21.972656 L 6.046875 21.972656 L 6.84375 24.128906 L 8.277344 23.597656 L 7.34375 21.070312 Z M 7.34375 18.882812 "/>
<path style=" stroke:none;fill-rule:nonzero;fill:rgb(97.647059%,79.215686%,0%);fill-opacity:1;" d="M 33.257812 5.230469 L 16.742188 5.230469 L 15.210938 13 L 34.789062 13 Z M 33.257812 5.230469 "/>
<path style=" stroke:none;fill-rule:nonzero;fill:rgb(16.862745%,16.470588%,19.607843%);fill-opacity:1;" d="M 2.917969 36.042969 L 2.917969 43.246094 C 2.917969 44.085938 3.601562 44.769531 4.441406 44.769531 L 10.320312 44.769531 C 11.160156 44.769531 11.84375 44.085938 11.84375 43.246094 L 11.84375 35.488281 "/>
<path style=" stroke:none;fill-rule:nonzero;fill:rgb(16.862745%,16.470588%,19.607843%);fill-opacity:1;" d="M 38.15625 35.488281 L 38.15625 43.246094 C 38.15625 44.085938 38.839844 44.769531 39.679688 44.769531 L 45.558594 44.769531 C 46.398438 44.769531 47.082031 44.085938 47.082031 43.246094 L 47.082031 34.953125 "/>
<path style=" stroke:none;fill-rule:nonzero;fill:rgb(5.098039%,10.588235%,14.117647%);fill-opacity:1;" d="M 33.261719 40.691406 L 16.738281 40.691406 C 15.554688 40.691406 14.597656 39.730469 14.597656 38.546875 L 28.320312 36.714844 L 35.402344 38.546875 C 35.402344 39.730469 34.445312 40.691406 33.261719 40.691406 Z M 33.261719 40.691406 "/>
<path style=" stroke:none;fill-rule:nonzero;fill:rgb(97.647059%,79.215686%,0%);fill-opacity:1;" d="M 45.566406 23.863281 L 4.433594 23.863281 C 2.863281 23.863281 1.59375 25.132812 1.59375 26.703125 L 1.59375 35.488281 L 48.40625 35.488281 L 48.40625 26.703125 C 48.40625 25.132812 47.136719 23.863281 45.566406 23.863281 Z M 45.566406 23.863281 "/>
<path style=" stroke:none;fill-rule:nonzero;fill:rgb(89.803922%,72.941176%,1.176471%);fill-opacity:1;" d="M 8.988281 23.863281 L 4.433594 23.863281 C 2.863281 23.863281 1.59375 25.132812 1.59375 26.703125 L 1.59375 35.488281 L 6.148438 35.488281 L 6.148438 26.703125 C 6.148438 25.132812 7.421875 23.863281 8.988281 23.863281 Z M 8.988281 23.863281 "/>
<path style=" stroke:none;fill-rule:nonzero;fill:rgb(38.039216%,41.176471%,43.921569%);fill-opacity:1;" d="M 13.375 26.5625 L 36.628906 26.5625 L 36.628906 31 L 13.375 31 Z M 13.375 26.5625 "/>
<path style=" stroke:none;fill-rule:nonzero;fill:rgb(50.980392%,57.254902%,63.921569%);fill-opacity:1;" d="M 49.988281 34.753906 L 49.988281 37.296875 C 49.988281 37.988281 49.425781 38.550781 48.734375 38.550781 L 1.265625 38.550781 C 0.574219 38.550781 0.0117188 37.988281 0.0117188 37.296875 L 0.0117188 34.753906 C 0.0117188 34.0625 0.574219 33.5 1.265625 33.5 L 48.734375 33.5 C 49.425781 33.5 49.988281 34.0625 49.988281 34.753906 Z M 49.988281 34.753906 "/>
<path style=" stroke:none;fill-rule:nonzero;fill:rgb(60.392157%,65.490196%,72.156863%);fill-opacity:1;" d="M 49.988281 34.753906 L 49.988281 37.296875 C 49.988281 37.988281 49.425781 38.550781 48.734375 38.550781 L 4.867188 38.550781 C 4.175781 38.550781 3.617188 37.988281 3.617188 37.296875 L 3.617188 34.753906 C 3.617188 34.0625 4.175781 33.5 4.867188 33.5 L 48.734375 33.5 C 49.425781 33.5 49.988281 34.0625 49.988281 34.753906 Z M 49.988281 34.753906 "/>
<path style=" stroke:none;fill-rule:nonzero;fill:rgb(75.294118%,91.764706%,97.647059%);fill-opacity:1;" d="M 42.441406 23.863281 L 7.558594 23.863281 L 10.40625 15.320312 C 10.863281 13.933594 12.160156 13 13.617188 13 L 36.382812 13 C 37.839844 13 39.136719 13.933594 39.59375 15.320312 Z M 42.441406 23.863281 "/>
<path style=" stroke:none;fill-rule:nonzero;fill:rgb(62.745098%,85.098039%,94.901961%);fill-opacity:1;" d="M 42.3125 23.863281 L 7.6875 23.863281 L 9.800781 17.765625 C 10.28125 16.382812 11.628906 15.449219 13.148438 15.449219 L 36.851562 15.449219 C 38.371094 15.449219 39.71875 16.382812 40.199219 17.765625 Z M 42.3125 23.863281 "/>
<path style=" stroke:none;fill-rule:nonzero;fill:rgb(97.647059%,79.215686%,0%);fill-opacity:1;" d="M 41.957031 24.832031 L 38.871094 15.558594 C 38.511719 14.488281 37.511719 13.765625 36.382812 13.765625 L 13.617188 13.765625 C 12.488281 13.765625 11.488281 14.488281 11.128906 15.558594 L 8.042969 24.832031 L 6.59375 24.347656 L 9.679688 15.078125 C 10.246094 13.378906 11.828125 12.234375 13.617188 12.234375 L 36.382812 12.234375 C 38.171875 12.234375 39.753906 13.378906 40.320312 15.078125 L 43.40625 24.347656 Z M 41.957031 24.832031 "/>
<path style=" stroke:none;fill-rule:nonzero;fill:rgb(89.803922%,72.941176%,1.176471%);fill-opacity:1;" d="M 36.625 31.765625 L 13.375 31.765625 C 12.949219 31.765625 12.609375 31.421875 12.609375 31 L 12.609375 26.5625 C 12.609375 26.140625 12.949219 25.796875 13.375 25.796875 L 36.625 25.796875 C 37.050781 25.796875 37.390625 26.140625 37.390625 26.5625 L 37.390625 31 C 37.390625 31.421875 37.050781 31.765625 36.625 31.765625 Z M 14.136719 30.234375 L 35.863281 30.234375 L 35.863281 27.328125 L 14.136719 27.328125 Z M 14.136719 30.234375 "/>
<path style=" stroke:none;fill-rule:nonzero;fill:rgb(99.607843%,100%,100%);fill-opacity:1;" d="M 39.378906 27.636719 L 45.804688 27.636719 L 45.804688 31.003906 L 39.378906 31.003906 Z M 39.378906 27.636719 "/>
<path style=" stroke:none;fill-rule:nonzero;fill:rgb(99.607843%,100%,100%);fill-opacity:1;" d="M 4.195312 27.636719 L 10.621094 27.636719 L 10.621094 31.003906 L 4.195312 31.003906 Z M 4.195312 27.636719 "/>
<path style=" stroke:none;fill-rule:nonzero;fill:rgb(16.862745%,16.470588%,19.607843%);fill-opacity:1;" d="M 21.429688 6.8125 C 21.652344 6.8125 21.75 7.058594 21.75 7.28125 C 21.75 7.539062 21.632812 7.765625 21.429688 7.765625 L 20.492188 7.765625 L 20.492188 11.453125 C 20.492188 11.667969 20.226562 11.777344 19.960938 11.777344 C 19.699219 11.777344 19.433594 11.667969 19.433594 11.453125 L 19.433594 7.765625 L 18.496094 7.765625 C 18.292969 7.765625 18.175781 7.539062 18.175781 7.28125 C 18.175781 7.058594 18.269531 6.8125 18.496094 6.8125 Z M 21.429688 6.8125 "/>
<path style=" stroke:none;fill-rule:nonzero;fill:rgb(16.862745%,16.470588%,19.607843%);fill-opacity:1;" d="M 21.742188 11.34375 C 21.742188 11.320312 21.746094 11.296875 21.753906 11.269531 L 23.015625 7.125 C 23.09375 6.886719 23.398438 6.773438 23.710938 6.773438 C 24.023438 6.773438 24.328125 6.886719 24.402344 7.125 L 25.671875 11.269531 C 25.679688 11.296875 25.6875 11.324219 25.6875 11.34375 C 25.6875 11.59375 25.300781 11.777344 25.007812 11.777344 C 24.835938 11.777344 24.703125 11.722656 24.660156 11.582031 L 24.429688 10.730469 L 22.996094 10.730469 L 22.765625 11.582031 C 22.726562 11.722656 22.589844 11.777344 22.421875 11.777344 C 22.128906 11.777344 21.742188 11.59375 21.742188 11.34375 Z M 24.207031 9.917969 L 23.710938 8.097656 L 23.214844 9.917969 C 23.214844 9.917969 24.207031 9.917969 24.207031 9.917969 Z M 24.207031 9.917969 "/>
<path style=" stroke:none;fill-rule:nonzero;fill:rgb(16.862745%,16.470588%,19.607843%);fill-opacity:1;" d="M 28.054688 10.023438 L 27.0625 11.710938 C 27.015625 11.785156 26.921875 11.816406 26.8125 11.816406 C 26.519531 11.816406 26.105469 11.585938 26.105469 11.296875 C 26.105469 11.234375 26.128906 11.171875 26.167969 11.105469 L 27.34375 9.292969 L 26.214844 7.484375 C 26.167969 7.410156 26.148438 7.34375 26.148438 7.273438 C 26.148438 6.988281 26.535156 6.773438 26.832031 6.773438 C 26.984375 6.773438 27.085938 6.828125 27.152344 6.949219 L 28.054688 8.523438 L 28.957031 6.949219 C 29.027344 6.828125 29.128906 6.773438 29.277344 6.773438 C 29.578125 6.773438 29.964844 6.988281 29.964844 7.273438 C 29.964844 7.34375 29.941406 7.410156 29.894531 7.484375 L 28.769531 9.292969 L 29.941406 11.105469 C 29.984375 11.171875 30.003906 11.234375 30.003906 11.296875 C 30.003906 11.585938 29.589844 11.816406 29.296875 11.816406 C 29.1875 11.816406 29.085938 11.785156 29.046875 11.710938 Z M 28.054688 10.023438 "/>
<path style=" stroke:none;fill-rule:nonzero;fill:rgb(16.862745%,16.470588%,19.607843%);fill-opacity:1;" d="M 30.765625 7.132812 C 30.765625 6.910156 31.027344 6.8125 31.292969 6.8125 C 31.558594 6.8125 31.824219 6.910156 31.824219 7.132812 L 31.824219 11.453125 C 31.824219 11.667969 31.558594 11.777344 31.292969 11.777344 C 31.027344 11.777344 30.765625 11.667969 30.765625 11.453125 Z M 30.765625 7.132812 "/>
<path style=" stroke:none;fill-rule:nonzero;fill:rgb(89.803922%,72.941176%,1.176471%);fill-opacity:1;" d="M 12.609375 26.5625 L 14.136719 26.5625 L 14.136719 31 L 12.609375 31 Z M 12.609375 26.5625 "/>
<path style=" stroke:none;fill-rule:nonzero;fill:rgb(89.803922%,72.941176%,1.176471%);fill-opacity:1;" d="M 16.484375 26.5625 L 18.011719 26.5625 L 18.011719 31 L 16.484375 31 Z M 16.484375 26.5625 "/>
<path style=" stroke:none;fill-rule:nonzero;fill:rgb(89.803922%,72.941176%,1.176471%);fill-opacity:1;" d="M 20.359375 26.5625 L 21.890625 26.5625 L 21.890625 31 L 20.359375 31 Z M 20.359375 26.5625 "/>
<path style=" stroke:none;fill-rule:nonzero;fill:rgb(89.803922%,72.941176%,1.176471%);fill-opacity:1;" d="M 24.234375 26.5625 L 25.765625 26.5625 L 25.765625 31 L 24.234375 31 Z M 24.234375 26.5625 "/>
<path style=" stroke:none;fill-rule:nonzero;fill:rgb(89.803922%,72.941176%,1.176471%);fill-opacity:1;" d="M 28.109375 26.5625 L 29.640625 26.5625 L 29.640625 31 L 28.109375 31 Z M 28.109375 26.5625 "/>
<path style=" stroke:none;fill-rule:nonzero;fill:rgb(89.803922%,72.941176%,1.176471%);fill-opacity:1;" d="M 31.988281 26.5625 L 33.515625 26.5625 L 33.515625 31 L 31.988281 31 Z M 31.988281 26.5625 "/>
<path style=" stroke:none;fill-rule:nonzero;fill:rgb(89.803922%,72.941176%,1.176471%);fill-opacity:1;" d="M 35.863281 26.5625 L 37.390625 26.5625 L 37.390625 31 L 35.863281 31 Z M 35.863281 26.5625 "/>
</g>
</svg>
